<?xml version="1.0" standalone="no"?>
<!DOCTYPE svg PUBLIC "-//W3C//DTD SVG 1.1//EN" "http://www.w3.org/Graphics/SVG/1.1/DTD/svg11.dtd" >
<svg xmlns="http://www.w3.org/2000/svg">
  <metadata>Created by iconfont</metadata>
  <defs>
  <font id="iconfont" horiz-adv-x="1024">
    <font-face
      font-family="iconfont"
      font-weight="400"
      font-stretch="normal"
      units-per-em="1024"
      ascent="896"
      descent="-128"
    />
      <missing-glyph />
      
      <glyph glyph-name="send" unicode="&#59093;" d="M469.333333 298.666667c-12.8 0-21.333333 4.266667-29.866666 12.8-17.066667 17.066667-17.066667 42.666667 0 59.733333l469.333333 469.333333c17.066667 17.066667 42.666667 17.066667 59.733333 0s17.066667-42.666667 0-59.733333l-469.333333-469.333333c-8.533333-8.533333-17.066667-12.8-29.866667-12.8zM640-85.333333c-17.066667 0-34.133333 8.533333-38.4 25.6l-162.133333 366.933333-371.2 166.4C51.2 482.133333 42.666667 494.933333 42.666667 512s12.8 34.133333 29.866666 38.4l853.333334 298.666667c17.066667 4.266667 34.133333 0 42.666666-8.533334 12.8-12.8 17.066667-29.866667 8.533334-42.666666l-298.666667-853.333334c-4.266667-17.066667-17.066667-29.866667-38.4-29.866666zM200.533333 507.733333l285.866667-128c8.533333-4.266667 17.066667-12.8 21.333333-21.333333l128-285.866667 234.666667 669.866667L200.533333 507.733333z"  horiz-adv-x="1024" />
      
      <glyph glyph-name="tubiaozhizuomoban-96" unicode="&#58900;" d="M983.715736 583.422101c-25.789926 60.976181-62.675517 115.654822-109.657165 162.63647-46.981648 46.981648-101.76025 83.867239-162.63647 109.657165C648.246779 882.505271 581.172979 896 512.099961 896S376.053104 882.505271 312.877782 855.815697c-60.976181-25.789926-115.654822-62.675517-162.63647-109.657165S66.374073 644.398282 40.584147 583.422101C13.894572 520.34674 0.299883 453.27294 0.299883 384.199922s13.494729-136.146818 40.184303-199.222179c25.789926-60.976181 62.675517-115.654822 109.657165-162.63647 46.981648-46.981648 101.76025-83.867239 162.63647-109.657165 63.075361-26.689574 130.14916-40.184303 199.222179-40.184303s136.146818 13.494729 199.222179 40.184303c60.976181 25.789926 115.654822 62.675517 162.63647 109.657165 46.981648 46.981648 83.867239 101.76025 109.657165 162.63647 26.689574 63.075361 40.184303 130.14916 40.184303 199.222179s-13.294807 136.146818-39.984381 199.222179z m-45.782116-199.222179c0-113.755564-44.282702-220.613823-124.651308-301.08239S625.955486-41.633737 512.199922-41.633737h-0.099961c-234.808278 0-425.833659 191.025381-425.833659 425.833659 0 113.755564 44.282702 220.713784 124.751269 301.08239 80.468567 80.468567 187.326825 124.751269 301.08239 124.751269 234.808278 0 425.833659-191.025381 425.833659-425.833659zM763.601718 258.549004c-16.79344 16.393596-43.982819 16.393596-60.776259 0-104.859039-105.158922-275.792269-105.358844-380.85123-0.499804l-0.499805 0.499804c-16.79344 16.693479-43.982819 16.493557-60.676298-0.199922-16.693479-16.79344-16.593518-43.982819 0.199922-60.676298 33.886763-33.886763 73.4713-60.176494 117.55408-78.069504 42.583366-17.293245 87.565795-25.989848 133.747755-26.089809h0.099961c46.081999 0 91.064428 8.796564 133.647794 25.989848 44.08278 17.893011 83.567357 44.08278 117.454119 77.869582l0.499805 0.399844 0.099961 0.199922c7.896915 7.996876 12.195236 18.592737 12.295197 29.788364 0.099961 11.395549-4.298321 22.091371-12.295197 30.188208-0.199922 0.399844-0.399844 0.499805-0.499805 0.599765zM336.568528 417.986724c35.286216 0 64.074971 28.788754 64.074971 64.074971 0 17.093323-6.697384 33.187036-18.792659 45.282311-12.095275 12.095275-28.188989 18.792659-45.282312 18.792659h-0.099961c-35.186255 0-63.875049-28.588832-63.97501-63.875048v-0.299883c0-35.186255 28.788754-63.97501 64.074971-63.97501zM688.131199 417.986724c35.286216 0 64.074971 28.788754 64.07497 64.074971 0 17.093323-6.697384 33.187036-18.792659 45.282311-12.095275 12.095275-28.188989 18.792659-45.282311 18.792659h-0.099961c-35.186255 0-63.875049-28.588832-63.97501-63.875048v-0.299883c-0.099961-35.186255 28.688793-63.97501 64.074971-63.97501z"  horiz-adv-x="1024" />
      
      <glyph glyph-name="microphone-off" unicode="&#59346;" d="M682.666667 419.328V640c0 94.592-76.16 171.562667-169.770667 171.562667L494.336 810.666667l-1.024-1.024a170.538667 170.538667 0 0 1-124.117333-76.842667l63.104-63.104A85.205333 85.205333 0 0 0 512 725.333333l9.386667 0.426667C563.968 721.408 597.333333 684.586667 597.333333 640v-135.338667l85.333334-85.333333z m80.981333-81.024l69.290667-69.290667A338.261333 338.261333 0 0 1 853.333333 384h-85.333333c0-15.616-1.621333-30.848-4.352-45.696zM341.333333 384c0-94.122667 76.544-170.666667 170.666667-170.666667 31.573333 0 60.672 9.258667 85.973333 24.362667l61.653334-61.653333A253.696 253.696 0 0 0 512 128c-141.184 0-256 114.816-256 256H170.666667c0-173.738667 130.56-317.269333 298.666666-338.389333V-42.666667h85.333334v88.32a339.370667 339.370667 0 0 1 165.76 69.589334l145.408-145.408 60.330666 60.330666-768 768-60.330666-60.330666L341.333333 494.336V384z m85.333334 25.002667l107.178666-107.178667A80.213333 80.213333 0 0 0 512 298.666667c-47.061333 0-85.333333 38.272-85.333333 85.333333v25.002667z"  horiz-adv-x="1024" />
      
      <glyph glyph-name="mutemode" unicode="&#59105;" d="M800.128 168.64l-9.856-12.608a16 16 0 0 0-22.464-2.768L214.144 585.84a16 16 0 0 0-2.752 22.464l9.856 12.608a16 16 0 0 0 22.448 2.752l553.664-432.576a16 16 0 0 0 2.768-22.448z m-385.184 70.336l-1.728 1.68a18.912 18.912 0 0 1-13.84 6.064h-77.744c-22.24 0-26.928 0.576-36.256 10.192-9.072 9.376-9.472 13.04-9.472 35.872V464.672a16 16 0 0 0 16 16h16a16 16 0 0 0 16-16V294.72h75.472c18.112 0 35.424-7.36 48.032-20.368l162.4-142.368v78.752a16 16 0 0 0 16 16h16a16 16 0 0 0 16-16v-82.832c0-19.808-0.08-26.32-0.64-33.392-1.328-16.432-4.368-25.952-17.92-32.224-14.752-6.8-24.512-1.84-37.072 9.36-5.184 4.624-10.16 9.76-22.208 22.672l-165.024 144.64z m11.056 289.216a16 16 0 0 0 1.488 22.56l152.992 134.112c12.032 12.912 17.024 18.064 22.208 22.672 12.56 11.2 22.32 16.16 37.056 9.36 13.568-6.272 16.608-15.792 17.92-32.208 0.576-7.088 0.656-13.6 0.656-33.408v-268.992a16 16 0 0 0-16-16h-16a16 16 0 0 0-16 16V647.2l-151.2-132.528a16 16 0 0 0-22.56 1.488l-10.56 12.032z"  horiz-adv-x="1024" />
      
      <glyph glyph-name="volume-mute-outline" unicode="&#59218;" d="M725.333333 0a45.226667 45.226667 0 0 0-24.32 7.253333L426.666667 194.986667H213.333333a42.666667 42.666667 0 0 0-42.666666 42.666666V530.346667a42.666667 42.666667 0 0 0 42.666666 42.666666h213.333334l273.493333 187.733334A42.666667 42.666667 0 0 0 768 725.333333v-682.666666a42.666667 42.666667 0 0 0-42.666667-42.666667zM256 280.32h184.746667a42.666667 42.666667 0 0 0 24.32-7.253333l217.6-149.333334V644.266667l-217.6-149.333334a42.666667 42.666667 0 0 0-24.32-7.253333H256z"  horiz-adv-x="1024" />
      
      <glyph glyph-name="voice" unicode="&#59041;" d="M207.637333 362.645333a8.533333 8.533333 0 0 0 8.448-7.36 320 320 0 0 1 2.282667-14.570666C243.626667 207.445333 360.746667 106.666667 501.333333 106.666667c140.842667 0 258.069333 101.098667 283.072 234.666666 0.64 3.392 1.365333 8.021333 2.176 13.952a8.533333 8.533333 0 0 0 8.448 7.36h47.338667a8.533333 8.533333 0 0 0 8.469333-9.514666c-0.597333-5.162667-1.130667-9.301333-1.6-12.394667C824.853333 182.272 694.826667 58.645333 533.333333 44.096V-55.466667a8.533333 8.533333 0 0 0-8.533333-8.533333h-46.933333a8.533333 8.533333 0 0 0-8.533334 8.533333l-0.021333 99.562667c-161.493333 14.570667-291.562667 138.24-315.882667 296.746667a355.477333 355.477333 0 0 0-1.6 12.288 8.533333 8.533333 0 0 0 7.466667 9.450666l0.512 0.042667h47.829333zM501.333333 832a202.666667 202.666667 0 0 0 202.666667-202.666667v-234.666666a202.666667 202.666667 0 0 0-405.333333 0v234.666666A202.666667 202.666667 0 0 0 501.333333 832z m0-64a138.666667 138.666667 0 0 1-138.581333-133.696L362.666667 629.333333v-234.666666a138.666667 138.666667 0 0 1 277.248-4.970667L640 394.666667v234.666666A138.666667 138.666667 0 0 1 501.333333 768z"  horiz-adv-x="1024" />
      
      <glyph glyph-name="medium" unicode="&#59514;" d="M834.7 616.2l61.3 58.9V688H683.7L532.4 309.6 360.3 688H137.7v-12.9l71.6-86.6c7-6.4 10.6-15.8 9.7-25.2V223c2.2-12.3-1.7-24.8-10.3-33.7L128 91v-12.7h228.6v12.9l-80.6 98c-8.7 8.9-12.9 21.3-11.1 33.7V517.3l200.7-439.2h23.3l172.6 439.2v-349.9c0-9.2 0-11.1-6-17.2l-62.1-60.3V77h301.2v12.9l-59.9 58.9c-5.2 4-7.9 10.7-6.8 17.2V599c-1.1 6.5 1.6 13.2 6.8 17.2z"  horiz-adv-x="1024" />
      
      <glyph glyph-name="caidan1" unicode="&#60145;" d="M170.666667 682.666667h682.666666v-85.333334H170.666667V682.666667z m0-512h682.666666v-85.333334H170.666667v85.333334z m0 256h682.666666v-85.333334H170.666667v85.333334z"  horiz-adv-x="1024" />
      
      <glyph glyph-name="close" unicode="&#59038;" d="M507.168 422.768L716.48 632.064a16 16 0 0 0 22.624 0l11.312-11.312a16 16 0 0 0 0-22.624L541.12 388.832 750.4 179.52a16 16 0 0 0 0-22.624l-11.312-11.312a16 16 0 0 0-22.624 0L507.168 354.88 297.872 145.6a16 16 0 0 0-22.624 0l-11.312 11.312a16 16 0 0 0 0 22.624l209.296 209.312-209.296 209.296a16 16 0 0 0 0 22.624l11.312 11.312a16 16 0 0 0 22.624 0l209.296-209.296z"  horiz-adv-x="1024" />
      
      <glyph glyph-name="wallet" unicode="&#59104;" d="M787.584 731.861333a85.333333 85.333333 0 0 0 1.493333-15.936v-13.653333A128.042667 128.042667 0 0 0 896 576v-88.021333c36.821333-9.493333 64-42.88 64-82.645334v-149.333333a85.376 85.376 0 0 0-64-82.645333V85.333333a128 128 0 0 0-128-128H192a128 128 0 0 0-128 128V576a128 128 0 0 0 127.744 128v1.429333L687.829333 799.786667a85.333333 85.333333 0 0 0 99.776-67.904zM768 640H192a64 64 0 0 1-63.893333-60.245333L128 576v-490.666667a64 64 0 0 1 60.245333-63.893333L192 21.333333h576a64 64 0 0 1 63.893333 60.245334L832 85.333333v85.333334h-181.333333a160 160 0 0 0 0 320H832v85.333333a64 64 0 0 1-60.245333 63.893333L768 640z m106.666667-213.333333H650.666667a96 96 0 0 1-4.522667-191.893334L650.666667 234.666667H874.666667a21.333333 21.333333 0 0 1 21.184 18.837333L896 256v149.333333a21.333333 21.333333 0 0 1-18.837333 21.184L874.666667 426.666667z m-224-64a32 32 0 1 0 0-64 32 32 0 0 0 0 64z m51.584 374.549333l-2.474667-0.341333-172.949333-32.853334h198.229333v12.906667l-0.341333 2.986667a21.333333 21.333333 0 0 1-22.464 17.28z"  horiz-adv-x="1024" />
      
      <glyph glyph-name="lingdang" unicode="&#58880;" d="M593.862 95.418l-169.191 0c-9.444 0-18.438-3.932-24.695-10.902-6.314-6.971-9.441-16.324-8.548-25.676 2.86-29.192 16.324-56.239 38.01-76.018 21.773-20.017 50.161-31.038 79.89-31.038 29.696 0 58.085 11.022 79.83 30.978 21.715 19.84 35.178 46.886 38.068 76.256 0.596 9.474-2.535 18.707-8.639 25.499-6.286 6.971-15.28 10.902-24.724 10.902zM555.02 20.174c-25.082-22.877-66.605-22.818-91.567-0.06-7.596 6.971-13.404 15.429-17.158 24.723l125.823 0c-3.723-9.353-9.474-17.751-17.097-24.663zM818.609 235.657l-62.763 82.928 0 49.268 0 105.715c0 70.745-24.216 136.337-68.183 184.682-26.003 28.626-57.31 49.715-93.055 62.822-3.306 18.944-12.721 36.252-26.926 49.208-32.051 29.251-85.104 29.251-117.096 0-14.357-13.046-23.77-30.383-26.987-49.268-35.714-13.046-67.022-34.135-93.026-62.791-43.938-48.434-68.184-114.026-68.184-184.653l0.179-154.686-62.315-82.451c-8.757-9.353-13.582-21.507-13.582-34.256l0-40.332c0-27.644 22.461-50.043 50.043-50.043l544.812 0c27.611 0 50.011 22.4 50.011 50.043l0 40.332c-0.001 12.75-4.796 24.904-12.927 33.483zM535.776 734.118c-7.387 0.656-19.302 1.906-26.569 1.906-7.298 0-19.689-1.252-27.048-1.906 12.42 20.254 44.384 16.502 53.617 0zM237.427 161.844l-0.12 40.035 62.315 82.45c8.698 9.354 13.524 21.447 13.524 34.256l0 154.983c0 58.056 19.54 111.554 54.986 150.635 17.574 19.362 38.307 34.375 61.541 44.682 48.852 21.745 110.302 21.745 159.096 0 23.321-10.425 43.994-25.438 61.539-44.682 35.449-39.081 54.959-92.579 54.959-150.635l0-154.984c0-12.867 4.826-25.081 12.956-33.54l62.791-82.868 0.509-39.795-544.096-0.536z"  horiz-adv-x="1024" />
      
      <glyph glyph-name="shezhi" unicode="&#58955;" d="M512 198.4c102.4 0 182.4 83.2 182.4 185.6 0 102.4-83.2 185.6-182.4 185.6-102.4 0-182.4-83.2-182.4-185.6C329.6 281.6 412.8 198.4 512 198.4L512 198.4zM512 249.6c-73.6 0-134.4 60.8-134.4 134.4 0 73.6 60.8 134.4 134.4 134.4 73.6 0 134.4-60.8 134.4-134.4C646.4 310.4 585.6 249.6 512 249.6L512 249.6zM249.015232 52.821408c35.2-28.8 73.6-51.2 112-67.2 41.6 38.4 96 60.8 150.4 60.8 57.6 0 108.8-22.4 150.4-60.8 41.6 16 80 38.4 112 67.2-12.8 54.4-3.2 112 22.4 163.2 28.8 48 73.6 86.4 128 102.4 3.2 22.4 6.4 44.8 6.4 67.2 0 22.4-3.2 44.8-6.4 67.2-54.4 16-99.2 54.4-128 102.4-28.8 48-35.2 108.8-22.4 163.2-35.2 28.8-73.6 51.2-112 67.2-41.6-38.4-92.8-60.8-150.4-60.8-54.4 0-108.8 22.4-150.4 60.8-41.6-16-80-38.4-112-67.2 12.8-54.4 3.2-112-22.4-163.2-28.8-48-73.6-86.4-128-102.4-3.2-22.4-6.4-44.8-6.4-67.2 0-22.4 3.2-44.8 6.4-67.2 54.4-16 99.2-54.4 128-102.4C252.215232 164.821408 261.815232 107.221408 249.015232 52.821408M361.015232-62.378592c-54.4 19.2-105.6 48-150.4 89.6-6.4 6.4-9.6 16-6.4 22.4 16 48 9.6 99.2-16 140.8-25.6 44.8-64 73.6-112 83.2-9.6 3.2-16 9.6-16 19.2-6.4 28.8-9.6 60.8-9.6 89.6 0 28.8 3.2 57.6 9.6 89.6 3.2 9.6 9.6 16 16 19.2 48 12.8 89.6 41.6 112 83.2 25.6 44.8 28.8 92.8 16 140.8-3.2 9.6 0 19.2 6.4 22.4 44.8 38.4 96 67.2 150.4 89.6 9.6 3.2 16 0 22.4-6.4 35.2-35.2 80-57.6 128-57.6 48 0 96 19.2 128 57.6 6.4 6.4 16 9.6 22.4 6.4 54.4-19.2 105.6-48 150.4-89.6 6.4-6.4 9.6-16 6.4-22.4-16-48-9.6-99.2 16-140.8 25.6-44.8 64-73.6 112-83.2 9.6-3.2 16-9.6 16-19.2 6.4-28.8 9.6-60.8 9.6-89.6 0-28.8-3.2-57.6-9.6-89.6-3.2-9.6-9.6-16-16-19.2-48-12.8-89.6-41.6-112-83.2-25.6-44.8-28.8-92.8-16-140.8 3.2-9.6 0-19.2-6.4-22.4-44.8-38.4-96-67.2-150.4-89.6-9.6-3.2-16 0-22.4 6.4-35.2 35.2-80 57.6-128 57.6-48 0-96-19.2-128-57.6-3.2-3.2-9.6-6.4-16-6.4C364.215232-62.378592 361.015232-62.378592 361.015232-62.378592z"  horiz-adv-x="1024" />
      
      <glyph glyph-name="lingdang-xianxing" unicode="&#59584;" d="M512 684l48.8-12c101.6-24.8 176-117.6 176-220.8v-254.4l18.4-18.4 24.8-25.6h-536l24.8 25.6 18.4 18.4V451.2c0 103.2 73.6 196.8 176 220.8l48.8 12M512 832c-36.8 0-64-30.4-64-68v-30.4C320.8 704 223.2 588.8 223.2 451.2v-228.8L136 132.8v-44.8h752v44.8l-87.2 89.6V451.2c0 137.6-97.6 252.8-224.8 283.2v28.8c0 32-17.6 60.8-48 67.2-5.6 1.6-11.2 1.6-16 1.6z m88-808H424c0-49.6 38.4-88 88-88s88 38.4 88 88z"  horiz-adv-x="1024" />
      
      <glyph glyph-name="sun" unicode="&#58943;" d="M486.4 128.3584c-126.8224 0-230.0416 103.168-230.0416 230.0416S359.5264 588.4416 486.4 588.4416s230.0416-103.168 230.0416-230.0416-103.168-230.0416-230.0416-230.0416z m0 408.8832c-98.6112 0-178.8416-80.2304-178.8416-178.8416s80.2304-178.8416 178.8416-178.8416 178.8416 80.2304 178.8416 178.8416S585.0112 537.2416 486.4 537.2416zM486.4 640a25.6 25.6 0 0 0-25.6 25.6v153.6a25.6 25.6 0 0 0 51.2 0v-153.6a25.6 25.6 0 0 0-25.6-25.6zM486.4-128a25.6 25.6 0 0 0-25.6 25.6v153.6a25.6 25.6 0 0 0 51.2 0v-153.6a25.6 25.6 0 0 0-25.6-25.6zM179.2 332.8h-153.6a25.6 25.6 0 0 0 0 51.2h153.6a25.6 25.6 0 0 0 0-51.2zM947.2 332.8h-153.6a25.6 25.6 0 0 0 0 51.2h153.6a25.6 25.6 0 0 0 0-51.2zM230.4 588.8a25.7024 25.7024 0 0 0-18.1248 7.4752l-102.4 102.4a25.6 25.6 0 0 0 36.1984 36.1984l102.4-102.4A25.6 25.6 0 0 0 230.3488 588.8zM128-25.6a25.6 25.6 0 0 0-18.1248 43.6736l102.4 102.4a25.6 25.6 0 0 0 36.1984-36.1984l-102.4-102.4a25.4976 25.4976 0 0 0-18.1248-7.4752zM844.8-25.6a25.7024 25.7024 0 0 0-18.1248 7.4752l-102.4 102.4a25.6 25.6 0 0 0 36.1984 36.1984l102.4-102.4a25.6 25.6 0 0 0-18.1248-43.6736zM742.4 588.8a25.6 25.6 0 0 0-18.1248 43.6736l102.4 102.4a25.6 25.6 0 0 0 36.1984-36.1984l-102.4-102.4a25.4976 25.4976 0 0 0-18.1248-7.4752z"  horiz-adv-x="1024" />
      
      <glyph glyph-name="caidan" unicode="&#58889;" d="M449.792 420.608H120.32c-15.616 0-28.16 12.544-28.16 28.16V778.24c0 15.616 12.544 28.16 28.16 28.16h329.472c15.616 0 28.16-12.544 28.16-28.16v-329.472c0-15.616-12.544-28.16-28.16-28.16zM148.48 476.928h273.152V750.08H148.48v-273.152zM903.68 420.608H574.208c-15.616 0-28.16 12.544-28.16 28.16V778.24c0 15.616 12.544 28.16 28.16 28.16H903.68c15.616 0 28.16-12.544 28.16-28.16v-329.472c0-15.616-12.544-28.16-28.16-28.16z m-301.312 56.32H875.52V750.08H602.368v-273.152zM449.792-38.4H120.32c-15.616 0-28.16 12.544-28.16 28.16V319.232c0 15.616 12.544 28.16 28.16 28.16h329.472c15.616 0 28.16-12.544 28.16-28.16V-10.24c0-15.616-12.544-28.16-28.16-28.16zM148.48 17.92h273.152V291.072H148.48V17.92zM903.424-38.4H573.952c-15.616 0-28.16 12.544-28.16 28.16V319.232c0 15.616 12.544 28.16 28.16 28.16h329.472c15.616 0 28.16-12.544 28.16-28.16V-10.24c0-15.616-12.544-28.16-28.16-28.16z m-301.312 56.32h273.152V291.072H602.112V17.92z"  horiz-adv-x="1024" />
      
      <glyph glyph-name="moon" unicode="&#59494;" d="M754.139429 235.501714c-236.562286 0-383.140571 142.281143-383.140572 370.706286 0 65.152 11.154286 122.587429 27.008 153.435429 6.418286 12.434286 7.277714 18.432 7.277714 26.989714 0 14.153143-12.854857 30.866286-30.848 30.866286-3.437714 0-11.574857-1.28-24.009142-5.997715-158.134857-64.292571-269.568-231.424-269.568-411.428571 0-260.150857 188.580571-449.572571 448.713142-449.572572 186.861714 0 337.718857 97.718857 407.588572 258.011429 4.699429 11.136 5.979429 20.553143 5.979428 25.270857 0 17.572571-15.414857 29.568-28.288 29.568-7.277714 0-11.995429-0.420571-22.272-4.278857-35.145143-14.134857-87.442286-23.588571-138.422857-23.588571z m-605.988572 167.570286c0 133.284571 68.992 260.150857 180.425143 330.002286-13.714286-39.862857-21.430857-84.004571-21.430857-132.864 0-267.849143 163.291429-427.282286 437.138286-427.282286 43.702857 0 81.426286 5.138286 116.571428 17.554286-65.133714-107.556571-190.72-173.129143-328.283428-173.129143-222.427429 0-384.420571 162.011429-384.420572 385.718857z"  horiz-adv-x="1024" />
      
      <glyph glyph-name="telegram" unicode="&#59185;" d="M679.424 149.138286l84.004571 395.995428c7.424 34.852571-12.580571 48.566857-35.437714 40.009143l-493.714286-190.281143c-33.718857-13.129143-33.133714-32-5.705142-40.557714l126.281142-39.424 293.156572 184.576c13.714286 9.142857 26.294857 3.986286 16.018286-5.156571l-237.129143-214.272-9.142857-130.304c13.129143 0 18.870857 5.705143 25.709714 12.580571l61.696 59.428571 128-94.281142c23.442286-13.129143 40.009143-6.290286 46.299428 21.723428zM1024 384c0-282.843429-229.156571-512-512-512S0 101.156571 0 384 229.156571 896 512 896s512-229.156571 512-512z"  horiz-adv-x="1024" />
      
      <glyph glyph-name="eth1" unicode="&#58913;" d="M514.048 281.6l-178.176 106.496 178.176 296.96zM514.048 111.616l-174.080 249.856 174.080-104.448zM520.192 281.6l178.176 106.496-178.176 296.96zM522.24 111.616l176.128 249.856-176.128-104.448z"  horiz-adv-x="1024" />
      
      <glyph glyph-name="yutube" unicode="&#59063;" d="M810.869 684.741H213.131c-81.78 0-148.691-66.911-148.691-148.691v-304.098c0-81.78 66.911-148.691 148.691-148.691h597.738c81.78 0 148.691 66.911 148.691 148.691V536.049c0.001 81.78-66.911 148.692-148.691 148.692zM408.851 283.197V479.229c0 24.634 26.667 40.03 48 27.713l169.771-98.017c21.333-12.317 21.333-43.109 0-55.426l-169.771-98.015c-21.334-12.316-48 3.08-48 27.713z"  horiz-adv-x="1024" />
      
      <glyph glyph-name="tuite" unicode="&#58962;" d="M919.759462 577.005387c0 9.605475-0.184234 19.102577-0.608696 28.534655 41.060787 30.595551 76.68666 68.894629 104.863684 112.720738a403.247526 403.247526 0 0 0-120.68436-33.017692c43.401647 26.708567 76.68666 69.423851 92.415219 120.68436-40.638132-24.645865-85.589515-42.265535-133.383889-51.446549-38.295465 43.575045-92.944441 71.329413-153.358869 72.360764-116.027926 1.918205-210.084998-96.132418-210.084999-218.973404 0-17.460724 1.826088-34.394031 5.451171-50.745736-174.722834 11.243716-329.55016 102.190479-433.116978 239.293373-18.071226-32.847907-28.438925-71.237296-28.438925-112.377556 0-77.811934 37.090717-146.970271 93.44657-187.779994-34.500598 1.560574-66.819283 12.009553-95.166091 29.141545v-2.85744c0-108.752474 72.440238-199.870827 168.560013-221.13003-17.621477-5.012259-36.207475-7.62044-55.322696-7.526516a191.542349 191.542349 0 0 0-39.500214 4.325895c26.708567-89.120675 104.332655-154.231274 196.231295-156.400543-71.923659-59.635948-162.525433-95.258208-260.892145-95.00895-16.960401 0-33.720311 1.137918-50.15149 3.200621 93.011271-63.80109 203.418242-100.960443 322.104923-100.960443 386.350343-0.092117 597.636477 336.191629 597.636477 627.962902z"  horiz-adv-x="1024" />
      
      <glyph glyph-name="gas-pump" unicode="&#58942;" d="M920.64 483.2l3.84 3.84 12.8 12.8a32 32 0 0 1 0 45.12l-192 192a32 32 0 0 1-45.12 0l-17.92-17.92a32 32 0 0 1 0-45.44l47.36-47.36a32 32 0 0 0 0-45.12L692.16 544a32 32 0 0 1 0-45.12l91.84-91.84a35.84 35.84 0 0 1 47.36-2.24l15.36 12.8c32-64 83.2-182.72 17.28-241.92-51.84-46.72-160-13.44-256 28.16V768a96 96 0 0 1-96 96H192a96 96 0 0 1-96-96v-768a64 64 0 0 1-64-64 32 32 0 0 1 32-32h576a32 32 0 0 1 32 32 66.24 66.24 0 0 1-64 64v100.16a548.48 548.48 0 0 1 184-41.6A196.8 196.8 0 0 1 928 105.28c125.76 112.96 35.52 304-7.36 377.92zM192 480V672a32 32 0 0 0 32 32h256a32 32 0 0 0 32-32v-192a32 32 0 0 0-32-32H224a32 32 0 0 0-32 32z"  horiz-adv-x="1024" />
      
      <glyph glyph-name="arrow-down" unicode="&#59314;" d="M500.8 291.221L267.307 524.608l-45.227-45.27 278.741-278.613L779.307 479.34l-45.248 45.248z"  horiz-adv-x="1024" />
      
      <glyph glyph-name="-internet" unicode="&#59006;" d="M943.999774 703.999871H80.000226c-35.200677 0-63.999355-28.800741-63.999356-63.999355v-510.400532h992.000322V640.000516c-0.002062 35.198614-28.800741 63.999355-64.001418 63.999355zM1007.99913 113.601176H16.00087c-9.600935 0-16.00087 6.399936-16.00087 16.00087V640.000516C0 684.800064 35.200677 720.000741 80.000226 720.000741h863.999548c44.799549 0 80.000226-35.200677 80.000226-80.000225v-510.400532c0-9.598872-6.399936-15.998808-16.00087-15.998808zM31.999678 145.600854H992.000322V640.000516c0 27.200242-20.800306 48.000548-48.000548 48.000547H80.000226c-27.200242 0-48.000548-20.800306-48.000548-48.000547V145.600854zM80.000226 640.000516h863.999548v-446.399114H80.000226zM16.00087 129.599984v-76.799227c0-35.200677 28.800741-63.999355 63.999356-63.999355h863.999548c35.200677 0 63.999355 28.800741 63.999356 63.999355v76.799227H16.00087zM943.999774-27.199468H80.000226C35.200677-27.199468 0 8.001208 0 52.800757v76.799227c0 9.600935 6.399936 16.00087 16.00087 16.00087h992.000322c9.600935 0 16.00087-6.399936 16.00087-16.00087v-76.799227c-0.002062-43.201112-35.202739-80.000226-80.002288-80.000225zM31.999678 113.601176v-60.800419c0-27.200242 20.800306-48.000548 48.000548-48.000548h863.999548c27.200242 0 48.000548 20.800306 48.000548 48.000548v60.800419H31.999678zM384.000258-11.200661h255.999484v-100.800531H384.000258zM639.999742-128H384.000258c-9.600935 0-16.00087 6.399936-16.00087 16.00087v100.800532c0 9.600935 6.399936 16.00087 16.00087 16.00087h255.999484c9.600935 0 16.00087-6.399936 16.00087-16.00087v-100.800532c0-8.000435-6.399936-16.00087-16.00087-16.00087zM399.999065-96.000322h223.999807v68.800854H399.999065v-68.800854zM716.798969-128H307.198969c-9.600935 0-16.00087 6.399936-16.00087 16.00087s6.399936 16.00087 16.00087 16.00087h409.6c9.600935 0 16.00087-6.399936 16.00087-16.00087 0-8.000435-6.399936-16.00087-16.00087-16.00087zM409.6 75.1995h31.999678v-31.999677h-31.999678zM496.000161 75.1995H527.999839v-31.999677h-31.999678zM582.400322 75.1995h31.999678v-31.999677h-31.999678zM511.998969 879.99913c-177.599758 0-321.599339-143.999581-321.59934-321.599339s143.999581-321.599339 321.59934-321.59934 321.599339 143.999581 321.599339 321.59934C833.600371 735.999549 689.60079 879.99913 511.998969 879.99913zM511.998969 220.799581c-185.600193 0-337.600209 152.000016-337.60021 337.60021S326.400838 896 511.998969 896s337.600209-152.000016 337.600209-337.600209S697.599162 220.799581 511.998969 220.799581z m0 643.200741c-168.000886 0-305.600532-137.599646-305.600532-305.600531s137.599646-305.600532 305.600532-305.600532 305.600532 137.599646 305.600531 305.600532-137.599646 305.600532-305.600531 305.600531zM511.998969 300.799807c-142.399082 0-257.599984 115.200902-257.599984 257.599984S369.599887 815.999774 511.998969 815.999774s257.599984-115.200902 257.599984-257.599983-115.19884-257.599984-257.599984-257.599984zM511.998969 220.799581c-113.600403 0-204.8 152.000016-204.8 337.60021S398.400628 896 511.998969 896s204.8-152.000016 204.8-337.600209-91.199597-337.600209-204.8-337.60021z m0 643.200741c-95.999033 0-172.800322-137.599646-172.800323-305.600531s78.399726-305.600532 172.800323-305.600532 172.800322 137.599646 172.800322 305.600532-76.799227 305.600532-172.800322 305.600531zM511.998969 220.799581c-9.600935 0-16.00087 6.399936-16.00087 16.00087V879.99913c0 9.600935 6.399936 16.00087 16.00087 16.00087S527.999839 889.600064 527.999839 879.99913v-643.200741c0-7.998373-6.399936-15.998808-16.00087-15.998808zM833.600371 542.400983H190.399629c-9.600935 0-16.00087 6.399936-16.00087 16.00087 0 9.600935 6.399936 16.00087 16.00087 16.00087H833.600371c9.600935 0 16.00087-6.399936 16.00087-16.00087-0.002062-9.600935-8.002498-16.00087-16.00087-16.00087zM511.998969 695.999436c-86.400161 0-172.800322 25.599742-240.000677 70.399291-3.200999 3.200999-6.399936 6.399936-6.399936 11.199372s1.6005 9.600935 4.799436 12.799871C332.800773 859.200886 419.198872 896 511.998969 896s179.200258-36.799114 243.199613-103.999468c3.200999-3.200999 4.799436-8.000435 4.799436-12.799871s-3.200999-9.600935-6.399935-11.199372c-68.798792-46.402111-155.198953-72.001853-241.599114-72.001853zM305.600532 784.000097c59.199919-35.200677 132.800209-54.400483 206.400499-54.400484 73.60029 0 145.600081 19.199807 206.4005 54.400484-57.59942 51.199484-129.59921 80.000226-206.4005 80.000225S363.199952 835.199581 305.600532 784.000097zM511.998969 220.799581c-92.800097 0-179.200258 36.799114-243.199614 103.999468-3.200999 3.200999-4.799436 8.000435-4.799436 12.799871s3.200999 9.600935 6.399936 11.199372c68.800854 46.400048 153.600516 71.999791 240.000677 71.999791s172.800322-25.599742 240.000676-71.999791c3.200999-3.200999 6.399936-6.399936 6.399936-11.199372s-1.6005-9.600935-4.799436-12.799871c-60.802481-67.198292-147.202643-103.999468-240.002739-103.999468zM305.600532 332.799484c56.000983-51.199484 129.59921-80.000226 206.400499-80.000225s148.799017 28.800741 206.4005 80.000225c-60.800419 35.200677-132.800209 54.400483-206.4005 54.400484s-145.602143-17.599307-206.400499-54.400484z"  horiz-adv-x="1024" />
      
      <glyph glyph-name="Language" unicode="&#59036;" d="M512 896a512 512 0 1 1 512-512A512.581818 512.581818 0 0 1 512 896z m442.181818-488.727273h-162.909091c-6.981818 152.901818-71.936 309.294545-180.596363 407.505455A443.112727 443.112727 0 0 0 954.181818 407.272727zM465.454545 802.909091v-395.636364h-162.90909c6.656 145.92 64.162909 314.181818 162.90909 395.636364z m0-465.454546v-372.363636c-91.857455 80.989091-149.666909 242.036364-162.90909 372.363636h162.90909z m69.818182-372.363636V337.454545h185.739637c-15.243636-132.421818-83.525818-291.141818-185.739637-372.363636z m0 442.181818V802.909091c109.917091-81.221818 178.501818-247.854545 186.181818-395.636364h-186.181818zM399.173818 811.054545C297.146182 714.472727 239.104 562.036364 232.750545 407.272727H70.981818A441.506909 441.506909 0 0 0 399.173818 811.054545zM72.308364 337.454545h160.139636c12.962909-142.429091 64.465455-277.410909 163.188364-372.363636A420.072727 420.072727 0 0 0 72.308364 337.454545z m532.945454-385.62909A615.214545 615.214545 0 0 1 791.272727 337.454545h162.909091a445.184 445.184 0 0 0-348.928-385.62909z"  horiz-adv-x="1024" />
      
      <glyph glyph-name="discord" unicode="&#60408;" d="M1049.062 756.328a3 3 0 0 1-1.528 1.4A970.13 970.13 0 0 1 808.162 831.94a3.632 3.632 0 0 1-3.846-1.82 674.922 674.922 0 0 1-29.8-61.2 895.696 895.696 0 0 1-268.852 0 619.082 619.082 0 0 1-30.27 61.2 3.78 3.78 0 0 1-3.848 1.82 967.378 967.378 0 0 1-239.376-74.214 3.424 3.424 0 0 1-1.576-1.352C78.136 528.698 36.372 306.62 56.86 87.292a4.032 4.032 0 0 1 1.53-2.75 975.332 975.332 0 0 1 293.65-148.378 3.8 3.8 0 0 1 4.126 1.352A696.4 696.4 0 0 1 416.24 35.2a3.72 3.72 0 0 1-2.038 5.176 642.346 642.346 0 0 0-91.736 43.706 3.77 3.77 0 0 0-0.37 6.252 502.094 502.094 0 0 1 18.218 14.274 3.638 3.638 0 0 0 3.8 0.512c192.458-87.834 400.82-87.834 591 0a3.624 3.624 0 0 0 3.848-0.466 469.066 469.066 0 0 1 18.264-14.32 3.768 3.768 0 0 0-0.324-6.252 602.814 602.814 0 0 0-91.78-43.66 3.75 3.75 0 0 1-2-5.222 782.11 782.11 0 0 1 60.028-97.63 3.728 3.728 0 0 1 4.126-1.4A972.096 972.096 0 0 1 1221.4 84.542a3.764 3.764 0 0 1 1.53 2.704c24.528 253.566-41.064 473.824-173.868 669.082zM444.982 220.84c-57.944 0-105.688 53.174-105.688 118.478s46.818 118.482 105.688 118.482c59.33 0 106.612-53.64 105.686-118.478 0-65.308-46.82-118.482-105.686-118.482z m390.76 0c-57.942 0-105.686 53.174-105.686 118.478s46.818 118.482 105.686 118.482c59.334 0 106.614-53.64 105.688-118.478 0-65.308-46.354-118.482-105.688-118.482z"  horiz-adv-x="1280" />
      
      <glyph glyph-name="OpenSea-fill" unicode="&#60676;" d="M136.106667 329.472l2.986666 4.693333 180.053334 281.642667a6.144 6.144 0 0 0 10.794666-0.768c30.08-67.413333 56.064-151.253333 43.904-203.434667-5.205333-21.504-19.413333-50.56-35.413333-77.44a141.738667 141.738667 0 0 0-6.784-11.477333 6.101333 6.101333 0 0 0-5.12-2.688h-185.173333a6.144 6.144 0 0 0-5.248 9.472zM938.666667 277.12v-44.586667a6.4 6.4 0 0 0-3.84-5.845333c-13.952-5.973333-61.653333-27.861333-81.493334-55.466667C802.688 100.778667 764.032 0 677.546667 0H316.8C188.928 0 85.333333 103.978667 85.333333 232.234667v4.138666c0 3.413333 2.773333 6.186667 6.186667 6.186667h201.088c4.010667 0 6.912-3.712 6.570667-7.594667-1.450667-13.098667 0.981333-26.453333 7.168-38.613333 11.946667-24.277333 36.693333-39.424 63.445333-39.424H469.333333V234.666667H370.901333a6.357333 6.357333 0 0 0-5.12 9.941333c1.066667 1.664 2.304 3.370667 3.584 5.290667 9.301333 13.226667 22.613333 33.749333 35.84 57.173333 9.002667 15.786667 17.749333 32.64 24.789334 49.536 1.450667 3.072 2.56 6.186667 3.712 9.258667 1.92 5.418667 3.925333 10.453333 5.333333 15.488 1.408 4.266667 2.56 8.746667 3.712 12.970666 3.328 14.336 4.736 29.568 4.736 45.354667 0 6.186667-0.256 12.672-0.853333 18.858667a244.906667 244.906667 0 0 1-1.962667 20.266666 208.981333 208.981333 0 0 1-2.773333 18.048 304.64 304.64 0 0 1-5.717334 27.008l-0.768 3.413334c-1.706667 6.186667-3.114667 12.117333-5.12 18.304A690.261333 690.261333 0 0 1 411.392 601.6c-2.517333 7.04-5.333333 13.781333-8.192 20.565333-4.181333 10.154667-8.448 19.413333-12.373333 28.16a393.728 393.728 0 0 0-5.418667 11.306667 398.72 398.72 0 0 1-5.888 12.373333c-1.408 3.029333-3.072 5.888-4.181333 8.746667l-12.16 22.442667a3.968 3.968 0 0 0 4.48 5.76l76.074666-20.608h0.213334l0.298666-0.085334 10.026667-2.773333 11.008-3.114667 4.053333-1.152v45.226667c0 21.845333 17.493333 39.552 39.125334 39.552 10.794667 0 20.608-4.394667 27.648-11.605333a39.765333 39.765333 0 0 0 11.434666-27.946667V661.333333l8.106667-2.261333c0.64-0.213333 1.28-0.512 1.877333-0.938667 1.962667-1.493333 4.821333-3.712 8.448-6.4 2.858667-2.261333 5.888-5.034667 9.6-7.893333 7.338667-5.888 16.085333-13.525333 25.685334-22.272 2.56-2.176 5.034667-4.48 7.296-6.741333 12.373333-11.52 26.24-25.045333 39.466666-39.978667 3.712-4.181333 7.338667-8.448 11.050667-12.928 3.669333-4.565333 7.594667-9.045333 11.008-13.525333 4.48-5.973333 9.301333-12.16 13.525333-18.602667 1.962667-3.072 4.266667-6.186667 6.186667-9.258667 5.376-8.192 10.154667-16.64 14.72-25.088 1.92-3.925333 3.882667-8.192 5.589333-12.373333 5.077333-11.306667 9.045333-22.826667 11.605334-34.346667 0.768-2.517333 1.365333-5.205333 1.621333-7.637333v-0.554667c0.853333-3.413333 1.152-7.04 1.450667-10.752a114.901333 114.901333 0 0 0-6.186667-50.346666c-1.706667-4.821333-3.413333-9.856-5.632-14.634667-4.266667-9.898667-9.301333-19.754667-15.274667-29.013333-1.92-3.413333-4.224-7.04-6.485333-10.453334-2.474667-3.626667-5.034667-7.04-7.338667-10.368-3.114667-4.266667-6.442667-8.746667-9.856-12.757333a135.253333 135.253333 0 0 0-9.6-12.074667c-4.778667-5.632-9.344-10.965333-14.08-16.085333a146.773333 146.773333 0 0 0-9.045333-9.813333c-3.072-3.413333-6.186667-6.442667-9.045333-9.301334a360.192 360.192 0 0 0-12.074667-11.52l-7.808-7.168a6.4 6.4 0 0 0-4.224-1.578666h-60.586667v-77.738667h76.245334c17.066667 0 33.28 6.058667 46.378666 17.152 4.48 3.925333 24.021333 20.821333 47.146667 46.378667a5.888 5.888 0 0 0 2.901333 1.749333l210.56 60.885333a6.229333 6.229333 0 0 0 7.893334-5.973333z"  horiz-adv-x="1024" />
      
    </font>
</defs>
</svg>
